<?xml version="1.0" encoding="utf-8" standalone="no"?>
<!DOCTYPE svg PUBLIC "-//W3C//DTD SVG 1.1//EN"
  "http://www.w3.org/Graphics/SVG/1.1/DTD/svg11.dtd">
<svg xmlns:xlink="http://www.w3.org/1999/xlink" width="2162.142484pt" height="832.801974pt" viewBox="0 0 2162.142484 832.801974" xmlns="http://www.w3.org/2000/svg" version="1.1">
 <metadata>
  <rdf:RDF xmlns:dc="http://purl.org/dc/elements/1.1/" xmlns:cc="http://creativecommons.org/ns#" xmlns:rdf="http://www.w3.org/1999/02/22-rdf-syntax-ns#">
   <cc:Work>
    <dc:type rdf:resource="http://purl.org/dc/dcmitype/StillImage"/>
    <dc:date>2025-07-05T18:16:37.097787</dc:date>
    <dc:format>image/svg+xml</dc:format>
    <dc:creator>
     <cc:Agent>
      <dc:title>Matplotlib v3.10.3, https://matplotlib.org/</dc:title>
     </cc:Agent>
    </dc:creator>
   </cc:Work>
  </rdf:RDF>
 </metadata>
 <defs>
  <style type="text/css">*{stroke-linejoin: round; stroke-linecap: butt}</style>
 </defs>
 <g id="figure_1">
  <g id="patch_1">
   <path d="M 0 832.801974 
L 2162.142484 832.801974 
L 2162.142484 0 
L 0 0 
z
" style="fill: #ffffff"/>
  </g>
  <g id="axes_1">
   <g id="patch_2">
    <path d="M 270.267811 741.193757 
L 1945.928236 741.193757 
L 1945.928236 99.936237 
L 270.267811 99.936237 
z
" style="fill: #ffffff"/>
   </g>
   <g id="patch_3">
    <path d="M 346.434194 741.193757 
L 369.514916 741.193757 
L 369.514916 689.601094 
L 346.434194 689.601094 
z
" clip-path="url(#pba9334d21e)" style="fill: #1f77b4"/>
   </g>
   <g id="patch_4">
    <path d="M 392.595638 741.193757 
L 415.67636 741.193757 
L 415.67636 731.120819 
L 392.595638 731.120819 
z
" clip-path="url(#pba9334d21e)" style="fill: #1f77b4"/>
   </g>
   <g id="patch_5">
    <path d="M 438.757082 741.193757 
L 461.837804 741.193757 
L 461.837804 697.752901 
L 438.757082 697.752901 
z
" clip-path="url(#pba9334d21e)" style="fill: #1f77b4"/>
   </g>
   <g id="patch_6">
    <path d="M 484.918526 741.193757 
L 507.999248 741.193757 
L 507.999248 698.669572 
L 484.918526 698.669572 
z
" clip-path="url(#pba9334d21e)" style="fill: #1f77b4"/>
   </g>
   <g id="patch_7">
    <path d="M 531.07997 741.193757 
L 554.160693 741.193757 
L 554.160693 599.412419 
L 531.07997 599.412419 
z
" clip-path="url(#pba9334d21e)" style="fill: #1f77b4"/>
   </g>
   <g id="patch_8">
    <path d="M 577.241415 741.193757 
L 600.322137 741.193757 
L 600.322137 717.700365 
L 577.241415 717.700365 
z
" clip-path="url(#pba9334d21e)" style="fill: #1f77b4"/>
   </g>
   <g id="patch_9">
    <path d="M 623.402859 741.193757 
L 646.483581 741.193757 
L 646.483581 672.802808 
L 623.402859 672.802808 
z
" clip-path="url(#pba9334d21e)" style="fill: #1f77b4"/>
   </g>
   <g id="patch_10">
    <path d="M 669.564303 741.193757 
L 692.645025 741.193757 
L 692.645025 130.472309 
L 669.564303 130.472309 
z
" clip-path="url(#pba9334d21e)" style="fill: #1f77b4"/>
   </g>
   <g id="patch_11">
    <path d="M 715.725747 741.193757 
L 738.806469 741.193757 
L 738.806469 428.224972 
L 715.725747 428.224972 
z
" clip-path="url(#pba9334d21e)" style="fill: #1f77b4"/>
   </g>
   <g id="patch_12">
    <path d="M 761.887192 741.193757 
L 784.967914 741.193757 
L 784.967914 178.954237 
L 761.887192 178.954237 
z
" clip-path="url(#pba9334d21e)" style="fill: #1f77b4"/>
   </g>
   <g id="patch_13">
    <path d="M 808.048636 741.193757 
L 831.129358 741.193757 
L 831.129358 730.227702 
L 808.048636 730.227702 
z
" clip-path="url(#pba9334d21e)" style="fill: #1f77b4"/>
   </g>
   <g id="patch_14">
    <path d="M 854.21008 741.193757 
L 877.290802 741.193757 
L 877.290802 694.748007 
L 854.21008 694.748007 
z
" clip-path="url(#pba9334d21e)" style="fill: #1f77b4"/>
   </g>
   <g id="patch_15">
    <path d="M 900.371524 741.193757 
L 923.452246 741.193757 
L 923.452246 690.071823 
L 900.371524 690.071823 
z
" clip-path="url(#pba9334d21e)" style="fill: #1f77b4"/>
   </g>
   <g id="patch_16">
    <path d="M 946.532968 741.193757 
L 969.613691 741.193757 
L 969.613691 724.028526 
L 946.532968 724.028526 
z
" clip-path="url(#pba9334d21e)" style="fill: #1f77b4"/>
   </g>
   <g id="patch_17">
    <path d="M 992.694413 741.193757 
L 1015.775135 741.193757 
L 1015.775135 379.616322 
L 992.694413 379.616322 
z
" clip-path="url(#pba9334d21e)" style="fill: #1f77b4"/>
   </g>
   <g id="patch_18">
    <path d="M 1038.855857 741.193757 
L 1061.936579 741.193757 
L 1061.936579 729.947208 
L 1038.855857 729.947208 
z
" clip-path="url(#pba9334d21e)" style="fill: #1f77b4"/>
   </g>
   <g id="patch_19">
    <path d="M 1085.017301 741.193757 
L 1108.098023 741.193757 
L 1108.098023 729.553982 
L 1085.017301 729.553982 
z
" clip-path="url(#pba9334d21e)" style="fill: #1f77b4"/>
   </g>
   <g id="patch_20">
    <path d="M 1131.178745 741.193757 
L 1154.259467 741.193757 
L 1154.259467 646.351014 
L 1131.178745 646.351014 
z
" clip-path="url(#pba9334d21e)" style="fill: #1f77b4"/>
   </g>
   <g id="patch_21">
    <path d="M 1177.34019 741.193757 
L 1200.420912 741.193757 
L 1200.420912 378.038892 
L 1177.34019 378.038892 
z
" clip-path="url(#pba9334d21e)" style="fill: #1f77b4"/>
   </g>
   <g id="patch_22">
    <path d="M 1223.501634 741.193757 
L 1246.582356 741.193757 
L 1246.582356 707.809434 
L 1223.501634 707.809434 
z
" clip-path="url(#pba9334d21e)" style="fill: #1f77b4"/>
   </g>
   <g id="patch_23">
    <path d="M 1269.663078 741.193757 
L 1292.7438 741.193757 
L 1292.7438 731.337052 
L 1269.663078 731.337052 
z
" clip-path="url(#pba9334d21e)" style="fill: #1f77b4"/>
   </g>
   <g id="patch_24">
    <path d="M 1315.824522 741.193757 
L 1338.905244 741.193757 
L 1338.905244 721.823944 
L 1315.824522 721.823944 
z
" clip-path="url(#pba9334d21e)" style="fill: #1f77b4"/>
   </g>
   <g id="patch_25">
    <path d="M 1361.985967 741.193757 
L 1385.066689 741.193757 
L 1385.066689 628.097004 
L 1361.985967 628.097004 
z
" clip-path="url(#pba9334d21e)" style="fill: #1f77b4"/>
   </g>
   <g id="patch_26">
    <path d="M 1408.147411 741.193757 
L 1431.228133 741.193757 
L 1431.228133 724.053829 
L 1408.147411 724.053829 
z
" clip-path="url(#pba9334d21e)" style="fill: #1f77b4"/>
   </g>
   <g id="patch_27">
    <path d="M 1454.308855 741.193757 
L 1477.389577 741.193757 
L 1477.389577 719.330897 
L 1454.308855 719.330897 
z
" clip-path="url(#pba9334d21e)" style="fill: #1f77b4"/>
   </g>
   <g id="patch_28">
    <path d="M 1500.470299 741.193757 
L 1523.551021 741.193757 
L 1523.551021 717.216573 
L 1500.470299 717.216573 
z
" clip-path="url(#pba9334d21e)" style="fill: #1f77b4"/>
   </g>
   <g id="patch_29">
    <path d="M 1546.631743 741.193757 
L 1569.712466 741.193757 
L 1569.712466 738.484759 
L 1546.631743 738.484759 
z
" clip-path="url(#pba9334d21e)" style="fill: #1f77b4"/>
   </g>
   <g id="patch_30">
    <path d="M 1592.793188 741.193757 
L 1615.87391 741.193757 
L 1615.87391 721.818621 
L 1592.793188 721.818621 
z
" clip-path="url(#pba9334d21e)" style="fill: #1f77b4"/>
   </g>
   <g id="patch_31">
    <path d="M 1638.954632 741.193757 
L 1662.035354 741.193757 
L 1662.035354 730.872622 
L 1638.954632 730.872622 
z
" clip-path="url(#pba9334d21e)" style="fill: #1f77b4"/>
   </g>
   <g id="patch_32">
    <path d="M 1685.116076 741.193757 
L 1708.196798 741.193757 
L 1708.196798 717.218578 
L 1685.116076 717.218578 
z
" clip-path="url(#pba9334d21e)" style="fill: #1f77b4"/>
   </g>
   <g id="patch_33">
    <path d="M 1731.27752 741.193757 
L 1754.358242 741.193757 
L 1754.358242 716.548612 
L 1731.27752 716.548612 
z
" clip-path="url(#pba9334d21e)" style="fill: #1f77b4"/>
   </g>
   <g id="patch_34">
    <path d="M 1777.438965 741.193757 
L 1800.519687 741.193757 
L 1800.519687 731.214034 
L 1777.438965 731.214034 
z
" clip-path="url(#pba9334d21e)" style="fill: #1f77b4"/>
   </g>
   <g id="patch_35">
    <path d="M 1823.600409 741.193757 
L 1846.681131 741.193757 
L 1846.681131 733.402467 
L 1823.600409 733.402467 
z
" clip-path="url(#pba9334d21e)" style="fill: #1f77b4"/>
   </g>
   <g id="patch_36">
    <path d="M 369.514916 741.193757 
L 392.595638 741.193757 
L 392.595638 689.643317 
L 369.514916 689.643317 
z
" clip-path="url(#pba9334d21e)" style="fill: #ff7f0e"/>
   </g>
   <g id="patch_37">
    <path d="M 415.67636 741.193757 
L 438.757082 741.193757 
L 438.757082 731.253068 
L 415.67636 731.253068 
z
" clip-path="url(#pba9334d21e)" style="fill: #ff7f0e"/>
   </g>
   <g id="patch_38">
    <path d="M 461.837804 741.193757 
L 484.918526 741.193757 
L 484.918526 697.754033 
L 461.837804 697.754033 
z
" clip-path="url(#pba9334d21e)" style="fill: #ff7f0e"/>
   </g>
   <g id="patch_39">
    <path d="M 507.999248 741.193757 
L 531.07997 741.193757 
L 531.07997 698.680578 
L 507.999248 698.680578 
z
" clip-path="url(#pba9334d21e)" style="fill: #ff7f0e"/>
   </g>
   <g id="patch_40">
    <path d="M 554.160693 741.193757 
L 577.241415 741.193757 
L 577.241415 599.478917 
L 554.160693 599.478917 
z
" clip-path="url(#pba9334d21e)" style="fill: #ff7f0e"/>
   </g>
   <g id="patch_41">
    <path d="M 600.322137 741.193757 
L 623.402859 741.193757 
L 623.402859 719.074626 
L 600.322137 719.074626 
z
" clip-path="url(#pba9334d21e)" style="fill: #ff7f0e"/>
   </g>
   <g id="patch_42">
    <path d="M 646.483581 741.193757 
L 669.564303 741.193757 
L 669.564303 676.182723 
L 646.483581 676.182723 
z
" clip-path="url(#pba9334d21e)" style="fill: #ff7f0e"/>
   </g>
   <g id="patch_43">
    <path d="M 692.645025 741.193757 
L 715.725747 741.193757 
L 715.725747 187.450105 
L 692.645025 187.450105 
z
" clip-path="url(#pba9334d21e)" style="fill: #ff7f0e"/>
   </g>
   <g id="patch_44">
    <path d="M 738.806469 741.193757 
L 761.887192 741.193757 
L 761.887192 437.654842 
L 738.806469 437.654842 
z
" clip-path="url(#pba9334d21e)" style="fill: #ff7f0e"/>
   </g>
   <g id="patch_45">
    <path d="M 784.967914 741.193757 
L 808.048636 741.193757 
L 808.048636 185.382967 
L 784.967914 185.382967 
z
" clip-path="url(#pba9334d21e)" style="fill: #ff7f0e"/>
   </g>
   <g id="patch_46">
    <path d="M 831.129358 741.193757 
L 854.21008 741.193757 
L 854.21008 730.229554 
L 831.129358 730.229554 
z
" clip-path="url(#pba9334d21e)" style="fill: #ff7f0e"/>
   </g>
   <g id="patch_47">
    <path d="M 877.290802 741.193757 
L 900.371524 741.193757 
L 900.371524 695.103407 
L 877.290802 695.103407 
z
" clip-path="url(#pba9334d21e)" style="fill: #ff7f0e"/>
   </g>
   <g id="patch_48">
    <path d="M 923.452246 741.193757 
L 946.532968 741.193757 
L 946.532968 690.892065 
L 923.452246 690.892065 
z
" clip-path="url(#pba9334d21e)" style="fill: #ff7f0e"/>
   </g>
   <g id="patch_49">
    <path d="M 969.613691 741.193757 
L 992.694413 741.193757 
L 992.694413 724.028989 
L 969.613691 724.028989 
z
" clip-path="url(#pba9334d21e)" style="fill: #ff7f0e"/>
   </g>
   <g id="patch_50">
    <path d="M 1015.775135 741.193757 
L 1038.855857 741.193757 
L 1038.855857 470.470746 
L 1015.775135 470.470746 
z
" clip-path="url(#pba9334d21e)" style="fill: #ff7f0e"/>
   </g>
   <g id="patch_51">
    <path d="M 1061.936579 741.193757 
L 1085.017301 741.193757 
L 1085.017301 731.092044 
L 1061.936579 731.092044 
z
" clip-path="url(#pba9334d21e)" style="fill: #ff7f0e"/>
   </g>
   <g id="patch_52">
    <path d="M 1108.098023 741.193757 
L 1131.178745 741.193757 
L 1131.178745 730.718747 
L 1108.098023 730.718747 
z
" clip-path="url(#pba9334d21e)" style="fill: #ff7f0e"/>
   </g>
   <g id="patch_53">
    <path d="M 1154.259467 741.193757 
L 1177.34019 741.193757 
L 1177.34019 655.945842 
L 1154.259467 655.945842 
z
" clip-path="url(#pba9334d21e)" style="fill: #ff7f0e"/>
   </g>
   <g id="patch_54">
    <path d="M 1200.420912 741.193757 
L 1223.501634 741.193757 
L 1223.501634 402.976976 
L 1200.420912 402.976976 
z
" clip-path="url(#pba9334d21e)" style="fill: #ff7f0e"/>
   </g>
   <g id="patch_55">
    <path d="M 1246.582356 741.193757 
L 1269.663078 741.193757 
L 1269.663078 707.824811 
L 1246.582356 707.824811 
z
" clip-path="url(#pba9334d21e)" style="fill: #ff7f0e"/>
   </g>
   <g id="patch_56">
    <path d="M 1292.7438 741.193757 
L 1315.824522 741.193757 
L 1315.824522 731.337052 
L 1292.7438 731.337052 
z
" clip-path="url(#pba9334d21e)" style="fill: #ff7f0e"/>
   </g>
   <g id="patch_57">
    <path d="M 1338.905244 741.193757 
L 1361.985967 741.193757 
L 1361.985967 721.824844 
L 1338.905244 721.824844 
z
" clip-path="url(#pba9334d21e)" style="fill: #ff7f0e"/>
   </g>
   <g id="patch_58">
    <path d="M 1385.066689 741.193757 
L 1408.147411 741.193757 
L 1408.147411 632.913794 
L 1385.066689 632.913794 
z
" clip-path="url(#pba9334d21e)" style="fill: #ff7f0e"/>
   </g>
   <g id="patch_59">
    <path d="M 1431.228133 741.193757 
L 1454.308855 741.193757 
L 1454.308855 724.271425 
L 1431.228133 724.271425 
z
" clip-path="url(#pba9334d21e)" style="fill: #ff7f0e"/>
   </g>
   <g id="patch_60">
    <path d="M 1477.389577 741.193757 
L 1500.470299 741.193757 
L 1500.470299 719.348871 
L 1477.389577 719.348871 
z
" clip-path="url(#pba9334d21e)" style="fill: #ff7f0e"/>
   </g>
   <g id="patch_61">
    <path d="M 1523.551021 741.193757 
L 1546.631743 741.193757 
L 1546.631743 717.440134 
L 1523.551021 717.440134 
z
" clip-path="url(#pba9334d21e)" style="fill: #ff7f0e"/>
   </g>
   <g id="patch_62">
    <path d="M 1569.712466 741.193757 
L 1592.793188 741.193757 
L 1592.793188 737.874786 
L 1569.712466 737.874786 
z
" clip-path="url(#pba9334d21e)" style="fill: #ff7f0e"/>
   </g>
   <g id="patch_63">
    <path d="M 1615.87391 741.193757 
L 1638.954632 741.193757 
L 1638.954632 721.818698 
L 1615.87391 721.818698 
z
" clip-path="url(#pba9334d21e)" style="fill: #ff7f0e"/>
   </g>
   <g id="patch_64">
    <path d="M 1662.035354 741.193757 
L 1685.116076 741.193757 
L 1685.116076 730.872622 
L 1662.035354 730.872622 
z
" clip-path="url(#pba9334d21e)" style="fill: #ff7f0e"/>
   </g>
   <g id="patch_65">
    <path d="M 1708.196798 741.193757 
L 1731.27752 741.193757 
L 1731.27752 717.218578 
L 1708.196798 717.218578 
z
" clip-path="url(#pba9334d21e)" style="fill: #ff7f0e"/>
   </g>
   <g id="patch_66">
    <path d="M 1754.358242 741.193757 
L 1777.438965 741.193757 
L 1777.438965 716.570521 
L 1754.358242 716.570521 
z
" clip-path="url(#pba9334d21e)" style="fill: #ff7f0e"/>
   </g>
   <g id="patch_67">
    <path d="M 1800.519687 741.193757 
L 1823.600409 741.193757 
L 1823.600409 731.323552 
L 1800.519687 731.323552 
z
" clip-path="url(#pba9334d21e)" style="fill: #ff7f0e"/>
   </g>
   <g id="patch_68">
    <path d="M 1846.681131 741.193757 
L 1869.761853 741.193757 
L 1869.761853 733.491876 
L 1846.681131 733.491876 
z
" clip-path="url(#pba9334d21e)" style="fill: #ff7f0e"/>
   </g>
   <g id="matplotlib.axis_1">
    <g id="xtick_1">
     <g id="line2d_1">
      <defs>
       <path id="mfacfc9f84c" d="M 0 0 
L 0 3.5 
" style="stroke: #000000; stroke-width: 0.8"/>
      </defs>
      <g>
       <use xlink:href="#mfacfc9f84c" x="311.81311" y="741.193757" style="stroke: #000000; stroke-width: 0.8"/>
      </g>
     </g>
     <g id="text_1">
      <!-- 0 -->
      <g transform="translate(308.63186 755.792195) scale(0.1 -0.1)">
       <defs>
        <path id="DejaVuSans-30" d="M 2034 4250 
Q 1547 4250 1301 3770 
Q 1056 3291 1056 2328 
Q 1056 1369 1301 889 
Q 1547 409 2034 409 
Q 2525 409 2770 889 
Q 3016 1369 3016 2328 
Q 3016 3291 2770 3770 
Q 2525 4250 2034 4250 
z
M 2034 4750 
Q 2819 4750 3233 4129 
Q 3647 3509 3647 2328 
Q 3647 1150 3233 529 
Q 2819 -91 2034 -91 
Q 1250 -91 836 529 
Q 422 1150 422 2328 
Q 422 3509 836 4129 
Q 1250 4750 2034 4750 
z
" transform="scale(0.015625)"/>
       </defs>
       <use xlink:href="#DejaVuSans-30"/>
      </g>
     </g>
    </g>
    <g id="xtick_2">
     <g id="line2d_2">
      <g>
       <use xlink:href="#mfacfc9f84c" x="542.620331" y="741.193757" style="stroke: #000000; stroke-width: 0.8"/>
      </g>
     </g>
     <g id="text_2">
      <!-- 5 -->
      <g transform="translate(539.439081 755.792195) scale(0.1 -0.1)">
       <defs>
        <path id="DejaVuSans-35" d="M 691 4666 
L 3169 4666 
L 3169 4134 
L 1269 4134 
L 1269 2991 
Q 1406 3038 1543 3061 
Q 1681 3084 1819 3084 
Q 2600 3084 3056 2656 
Q 3513 2228 3513 1497 
Q 3513 744 3044 326 
Q 2575 -91 1722 -91 
Q 1428 -91 1123 -41 
Q 819 9 494 109 
L 494 744 
Q 775 591 1075 516 
Q 1375 441 1709 441 
Q 2250 441 2565 725 
Q 2881 1009 2881 1497 
Q 2881 1984 2565 2268 
Q 2250 2553 1709 2553 
Q 1456 2553 1204 2497 
Q 953 2441 691 2322 
L 691 4666 
z
" transform="scale(0.015625)"/>
       </defs>
       <use xlink:href="#DejaVuSans-35"/>
      </g>
     </g>
    </g>
    <g id="xtick_3">
     <g id="line2d_3">
      <g>
       <use xlink:href="#mfacfc9f84c" x="773.427553" y="741.193757" style="stroke: #000000; stroke-width: 0.8"/>
      </g>
     </g>
     <g id="text_3">
      <!-- 10 -->
      <g transform="translate(767.065053 755.792195) scale(0.1 -0.1)">
       <defs>
        <path id="DejaVuSans-31" d="M 794 531 
L 1825 531 
L 1825 4091 
L 703 3866 
L 703 4441 
L 1819 4666 
L 2450 4666 
L 2450 531 
L 3481 531 
L 3481 0 
L 794 0 
L 794 531 
z
" transform="scale(0.015625)"/>
       </defs>
       <use xlink:href="#DejaVuSans-31"/>
       <use xlink:href="#DejaVuSans-30" transform="translate(63.623047 0)"/>
      </g>
     </g>
    </g>
    <g id="xtick_4">
     <g id="line2d_4">
      <g>
       <use xlink:href="#mfacfc9f84c" x="1004.234774" y="741.193757" style="stroke: #000000; stroke-width: 0.8"/>
      </g>
     </g>
     <g id="text_4">
      <!-- 15 -->
      <g transform="translate(997.872274 755.792195) scale(0.1 -0.1)">
       <use xlink:href="#DejaVuSans-31"/>
       <use xlink:href="#DejaVuSans-35" transform="translate(63.623047 0)"/>
      </g>
     </g>
    </g>
    <g id="xtick_5">
     <g id="line2d_5">
      <g>
       <use xlink:href="#mfacfc9f84c" x="1235.041995" y="741.193757" style="stroke: #000000; stroke-width: 0.8"/>
      </g>
     </g>
     <g id="text_5">
      <!-- 20 -->
      <g transform="translate(1228.679495 755.792195) scale(0.1 -0.1)">
       <defs>
        <path id="DejaVuSans-32" d="M 1228 531 
L 3431 531 
L 3431 0 
L 469 0 
L 469 531 
Q 828 903 1448 1529 
Q 2069 2156 2228 2338 
Q 2531 2678 2651 2914 
Q 2772 3150 2772 3378 
Q 2772 3750 2511 3984 
Q 2250 4219 1831 4219 
Q 1534 4219 1204 4116 
Q 875 4013 500 3803 
L 500 4441 
Q 881 4594 1212 4672 
Q 1544 4750 1819 4750 
Q 2544 4750 2975 4387 
Q 3406 4025 3406 3419 
Q 3406 3131 3298 2873 
Q 3191 2616 2906 2266 
Q 2828 2175 2409 1742 
Q 1991 1309 1228 531 
z
" transform="scale(0.015625)"/>
       </defs>
       <use xlink:href="#DejaVuSans-32"/>
       <use xlink:href="#DejaVuSans-30" transform="translate(63.623047 0)"/>
      </g>
     </g>
    </g>
    <g id="xtick_6">
     <g id="line2d_6">
      <g>
       <use xlink:href="#mfacfc9f84c" x="1465.849216" y="741.193757" style="stroke: #000000; stroke-width: 0.8"/>
      </g>
     </g>
     <g id="text_6">
      <!-- 25 -->
      <g transform="translate(1459.486716 755.792195) scale(0.1 -0.1)">
       <use xlink:href="#DejaVuSans-32"/>
       <use xlink:href="#DejaVuSans-35" transform="translate(63.623047 0)"/>
      </g>
     </g>
    </g>
    <g id="xtick_7">
     <g id="line2d_7">
      <g>
       <use xlink:href="#mfacfc9f84c" x="1696.656437" y="741.193757" style="stroke: #000000; stroke-width: 0.8"/>
      </g>
     </g>
     <g id="text_7">
      <!-- 30 -->
      <g transform="translate(1690.293937 755.792195) scale(0.1 -0.1)">
       <defs>
        <path id="DejaVuSans-33" d="M 2597 2516 
Q 3050 2419 3304 2112 
Q 3559 1806 3559 1356 
Q 3559 666 3084 287 
Q 2609 -91 1734 -91 
Q 1441 -91 1130 -33 
Q 819 25 488 141 
L 488 750 
Q 750 597 1062 519 
Q 1375 441 1716 441 
Q 2309 441 2620 675 
Q 2931 909 2931 1356 
Q 2931 1769 2642 2001 
Q 2353 2234 1838 2234 
L 1294 2234 
L 1294 2753 
L 1863 2753 
Q 2328 2753 2575 2939 
Q 2822 3125 2822 3475 
Q 2822 3834 2567 4026 
Q 2313 4219 1838 4219 
Q 1578 4219 1281 4162 
Q 984 4106 628 3988 
L 628 4550 
Q 988 4650 1302 4700 
Q 1616 4750 1894 4750 
Q 2613 4750 3031 4423 
Q 3450 4097 3450 3541 
Q 3450 3153 3228 2886 
Q 3006 2619 2597 2516 
z
" transform="scale(0.015625)"/>
       </defs>
       <use xlink:href="#DejaVuSans-33"/>
       <use xlink:href="#DejaVuSans-30" transform="translate(63.623047 0)"/>
      </g>
     </g>
    </g>
    <g id="xtick_8">
     <g id="line2d_8">
      <g>
       <use xlink:href="#mfacfc9f84c" x="1927.463658" y="741.193757" style="stroke: #000000; stroke-width: 0.8"/>
      </g>
     </g>
     <g id="text_8">
      <!-- 35 -->
      <g transform="translate(1921.101158 755.792195) scale(0.1 -0.1)">
       <use xlink:href="#DejaVuSans-33"/>
       <use xlink:href="#DejaVuSans-35" transform="translate(63.623047 0)"/>
      </g>
     </g>
    </g>
   </g>
   <g id="matplotlib.axis_2">
    <g id="ytick_1">
     <g id="line2d_9">
      <defs>
       <path id="me0dc941751" d="M 0 0 
L -3.5 0 
" style="stroke: #000000; stroke-width: 0.8"/>
      </defs>
      <g>
       <use xlink:href="#me0dc941751" x="270.267811" y="741.193757" style="stroke: #000000; stroke-width: 0.8"/>
      </g>
     </g>
     <g id="text_9">
      <!-- 0 -->
      <g transform="translate(256.905311 744.992976) scale(0.1 -0.1)">
       <use xlink:href="#DejaVuSans-30"/>
      </g>
     </g>
    </g>
    <g id="ytick_2">
     <g id="line2d_10">
      <g>
       <use xlink:href="#me0dc941751" x="270.267811" y="612.621216" style="stroke: #000000; stroke-width: 0.8"/>
      </g>
     </g>
     <g id="text_10">
      <!-- 50000 -->
      <g transform="translate(231.455311 616.420435) scale(0.1 -0.1)">
       <use xlink:href="#DejaVuSans-35"/>
       <use xlink:href="#DejaVuSans-30" transform="translate(63.623047 0)"/>
       <use xlink:href="#DejaVuSans-30" transform="translate(127.246094 0)"/>
       <use xlink:href="#DejaVuSans-30" transform="translate(190.869141 0)"/>
       <use xlink:href="#DejaVuSans-30" transform="translate(254.492188 0)"/>
      </g>
     </g>
    </g>
    <g id="ytick_3">
     <g id="line2d_11">
      <g>
       <use xlink:href="#me0dc941751" x="270.267811" y="484.048675" style="stroke: #000000; stroke-width: 0.8"/>
      </g>
     </g>
     <g id="text_11">
      <!-- 100000 -->
      <g transform="translate(225.092811 487.847894) scale(0.1 -0.1)">
       <use xlink:href="#DejaVuSans-31"/>
       <use xlink:href="#DejaVuSans-30" transform="translate(63.623047 0)"/>
       <use xlink:href="#DejaVuSans-30" transform="translate(127.246094 0)"/>
       <use xlink:href="#DejaVuSans-30" transform="translate(190.869141 0)"/>
       <use xlink:href="#DejaVuSans-30" transform="translate(254.492188 0)"/>
       <use xlink:href="#DejaVuSans-30" transform="translate(318.115234 0)"/>
      </g>
     </g>
    </g>
    <g id="ytick_4">
     <g id="line2d_12">
      <g>
       <use xlink:href="#me0dc941751" x="270.267811" y="355.476134" style="stroke: #000000; stroke-width: 0.8"/>
      </g>
     </g>
     <g id="text_12">
      <!-- 150000 -->
      <g transform="translate(225.092811 359.275352) scale(0.1 -0.1)">
       <use xlink:href="#DejaVuSans-31"/>
       <use xlink:href="#DejaVuSans-35" transform="translate(63.623047 0)"/>
       <use xlink:href="#DejaVuSans-30" transform="translate(127.246094 0)"/>
       <use xlink:href="#DejaVuSans-30" transform="translate(190.869141 0)"/>
       <use xlink:href="#DejaVuSans-30" transform="translate(254.492188 0)"/>
       <use xlink:href="#DejaVuSans-30" transform="translate(318.115234 0)"/>
      </g>
     </g>
    </g>
    <g id="ytick_5">
     <g id="line2d_13">
      <g>
       <use xlink:href="#me0dc941751" x="270.267811" y="226.903592" style="stroke: #000000; stroke-width: 0.8"/>
      </g>
     </g>
     <g id="text_13">
      <!-- 200000 -->
      <g transform="translate(225.092811 230.702811) scale(0.1 -0.1)">
       <use xlink:href="#DejaVuSans-32"/>
       <use xlink:href="#DejaVuSans-30" transform="translate(63.623047 0)"/>
       <use xlink:href="#DejaVuSans-30" transform="translate(127.246094 0)"/>
       <use xlink:href="#DejaVuSans-30" transform="translate(190.869141 0)"/>
       <use xlink:href="#DejaVuSans-30" transform="translate(254.492188 0)"/>
       <use xlink:href="#DejaVuSans-30" transform="translate(318.115234 0)"/>
      </g>
     </g>
    </g>
   </g>
   <g id="patch_69">
    <path d="M 270.267811 741.193757 
L 270.267811 99.936237 
" style="fill: none; stroke: #000000; stroke-width: 0.8; stroke-linejoin: miter; stroke-linecap: square"/>
   </g>
   <g id="patch_70">
    <path d="M 1945.928236 741.193757 
L 1945.928236 99.936237 
" style="fill: none; stroke: #000000; stroke-width: 0.8; stroke-linejoin: miter; stroke-linecap: square"/>
   </g>
   <g id="patch_71">
    <path d="M 270.267811 741.193757 
L 1945.928236 741.193757 
" style="fill: none; stroke: #000000; stroke-width: 0.8; stroke-linejoin: miter; stroke-linecap: square"/>
   </g>
   <g id="patch_72">
    <path d="M 270.267811 99.936237 
L 1945.928236 99.936237 
" style="fill: none; stroke: #000000; stroke-width: 0.8; stroke-linejoin: miter; stroke-linecap: square"/>
   </g>
   <g id="text_14">
    <!-- Сравнение стоимостей запросов -->
    <g transform="translate(1004.221148 93.936237) scale(0.12 -0.12)">
     <defs>
      <path id="DejaVuSans-421" d="M 4122 4306 
L 4122 3641 
Q 3803 3938 3442 4084 
Q 3081 4231 2675 4231 
Q 1875 4231 1450 3742 
Q 1025 3253 1025 2328 
Q 1025 1406 1450 917 
Q 1875 428 2675 428 
Q 3081 428 3442 575 
Q 3803 722 4122 1019 
L 4122 359 
Q 3791 134 3420 21 
Q 3050 -91 2638 -91 
Q 1578 -91 968 557 
Q 359 1206 359 2328 
Q 359 3453 968 4101 
Q 1578 4750 2638 4750 
Q 3056 4750 3426 4639 
Q 3797 4528 4122 4306 
z
" transform="scale(0.015625)"/>
      <path id="DejaVuSans-440" d="M 1159 525 
L 1159 -1331 
L 581 -1331 
L 581 3500 
L 1159 3500 
L 1159 2969 
Q 1341 3281 1617 3432 
Q 1894 3584 2278 3584 
Q 2916 3584 3314 3078 
Q 3713 2572 3713 1747 
Q 3713 922 3314 415 
Q 2916 -91 2278 -91 
Q 1894 -91 1617 61 
Q 1341 213 1159 525 
z
M 3116 1747 
Q 3116 2381 2855 2742 
Q 2594 3103 2138 3103 
Q 1681 3103 1420 2742 
Q 1159 2381 1159 1747 
Q 1159 1113 1420 752 
Q 1681 391 2138 391 
Q 2594 391 2855 752 
Q 3116 1113 3116 1747 
z
" transform="scale(0.015625)"/>
      <path id="DejaVuSans-430" d="M 2194 1759 
Q 1497 1759 1228 1600 
Q 959 1441 959 1056 
Q 959 750 1161 570 
Q 1363 391 1709 391 
Q 2188 391 2477 730 
Q 2766 1069 2766 1631 
L 2766 1759 
L 2194 1759 
z
M 3341 1997 
L 3341 0 
L 2766 0 
L 2766 531 
Q 2569 213 2275 61 
Q 1981 -91 1556 -91 
Q 1019 -91 701 211 
Q 384 513 384 1019 
Q 384 1609 779 1909 
Q 1175 2209 1959 2209 
L 2766 2209 
L 2766 2266 
Q 2766 2663 2505 2880 
Q 2244 3097 1772 3097 
Q 1472 3097 1187 3025 
Q 903 2953 641 2809 
L 641 3341 
Q 956 3463 1253 3523 
Q 1550 3584 1831 3584 
Q 2591 3584 2966 3190 
Q 3341 2797 3341 1997 
z
" transform="scale(0.015625)"/>
      <path id="DejaVuSans-432" d="M 1156 1613 
L 1156 459 
L 1975 459 
Q 2369 459 2575 607 
Q 2781 756 2781 1038 
Q 2781 1319 2575 1466 
Q 2369 1613 1975 1613 
L 1156 1613 
z
M 1156 3041 
L 1156 2072 
L 1913 2072 
Q 2238 2072 2444 2201 
Q 2650 2331 2650 2563 
Q 2650 2794 2444 2917 
Q 2238 3041 1913 3041 
L 1156 3041 
z
M 581 3500 
L 1950 3500 
Q 2566 3500 2897 3275 
Q 3228 3050 3228 2634 
Q 3228 2313 3059 2123 
Q 2891 1934 2559 1888 
Q 2956 1813 3175 1575 
Q 3394 1338 3394 981 
Q 3394 513 3033 256 
Q 2672 0 2003 0 
L 581 0 
L 581 3500 
z
" transform="scale(0.015625)"/>
      <path id="DejaVuSans-43d" d="M 581 3500 
L 1159 3500 
L 1159 2072 
L 3025 2072 
L 3025 3500 
L 3603 3500 
L 3603 0 
L 3025 0 
L 3025 1613 
L 1159 1613 
L 1159 0 
L 581 0 
L 581 3500 
z
" transform="scale(0.015625)"/>
      <path id="DejaVuSans-435" d="M 3597 1894 
L 3597 1613 
L 953 1613 
Q 991 1019 1311 708 
Q 1631 397 2203 397 
Q 2534 397 2845 478 
Q 3156 559 3463 722 
L 3463 178 
Q 3153 47 2828 -22 
Q 2503 -91 2169 -91 
Q 1331 -91 842 396 
Q 353 884 353 1716 
Q 353 2575 817 3079 
Q 1281 3584 2069 3584 
Q 2775 3584 3186 3129 
Q 3597 2675 3597 1894 
z
M 3022 2063 
Q 3016 2534 2758 2815 
Q 2500 3097 2075 3097 
Q 1594 3097 1305 2825 
Q 1016 2553 972 2059 
L 3022 2063 
z
" transform="scale(0.015625)"/>
      <path id="DejaVuSans-438" d="M 3578 3500 
L 3578 0 
L 3006 0 
L 3006 2809 
L 1319 0 
L 581 0 
L 581 3500 
L 1153 3500 
L 1153 697 
L 2838 3500 
L 3578 3500 
z
" transform="scale(0.015625)"/>
      <path id="DejaVuSans-20" transform="scale(0.015625)"/>
      <path id="DejaVuSans-441" d="M 3122 3366 
L 3122 2828 
Q 2878 2963 2633 3030 
Q 2388 3097 2138 3097 
Q 1578 3097 1268 2742 
Q 959 2388 959 1747 
Q 959 1106 1268 751 
Q 1578 397 2138 397 
Q 2388 397 2633 464 
Q 2878 531 3122 666 
L 3122 134 
Q 2881 22 2623 -34 
Q 2366 -91 2075 -91 
Q 1284 -91 818 406 
Q 353 903 353 1747 
Q 353 2603 823 3093 
Q 1294 3584 2113 3584 
Q 2378 3584 2631 3529 
Q 2884 3475 3122 3366 
z
" transform="scale(0.015625)"/>
      <path id="DejaVuSans-442" d="M 188 3500 
L 3541 3500 
L 3541 3041 
L 2147 3041 
L 2147 0 
L 1581 0 
L 1581 3041 
L 188 3041 
L 188 3500 
z
" transform="scale(0.015625)"/>
      <path id="DejaVuSans-43e" d="M 1959 3097 
Q 1497 3097 1228 2736 
Q 959 2375 959 1747 
Q 959 1119 1226 758 
Q 1494 397 1959 397 
Q 2419 397 2687 759 
Q 2956 1122 2956 1747 
Q 2956 2369 2687 2733 
Q 2419 3097 1959 3097 
z
M 1959 3584 
Q 2709 3584 3137 3096 
Q 3566 2609 3566 1747 
Q 3566 888 3137 398 
Q 2709 -91 1959 -91 
Q 1206 -91 779 398 
Q 353 888 353 1747 
Q 353 2609 779 3096 
Q 1206 3584 1959 3584 
z
" transform="scale(0.015625)"/>
      <path id="DejaVuSans-43c" d="M 581 3500 
L 1422 3500 
L 2416 1156 
L 3413 3500 
L 4247 3500 
L 4247 0 
L 3669 0 
L 3669 2950 
L 2703 672 
L 2128 672 
L 1159 2950 
L 1159 0 
L 581 0 
L 581 3500 
z
" transform="scale(0.015625)"/>
      <path id="DejaVuSans-439" d="M 3578 3500 
L 3578 0 
L 3006 0 
L 3006 2809 
L 1319 0 
L 581 0 
L 581 3500 
L 1153 3500 
L 1153 697 
L 2838 3500 
L 3578 3500 
z
M 1102 4833 
L 1471 4833 
Q 1505 4599 1656 4481 
Q 1808 4364 2080 4364 
Q 2349 4364 2499 4480 
Q 2649 4596 2689 4833 
L 3058 4833 
Q 3027 4386 2780 4161 
Q 2533 3936 2080 3936 
Q 1627 3936 1380 4161 
Q 1133 4386 1102 4833 
z
" transform="scale(0.015625)"/>
      <path id="DejaVuSans-437" d="M 2206 1888 
Q 2594 1813 2809 1584 
Q 3025 1356 3025 1019 
Q 3025 478 2622 193 
Q 2219 -91 1475 -91 
Q 1225 -91 961 -47 
Q 697 -3 416 84 
L 416 619 
Q 638 503 903 445 
Q 1169 388 1459 388 
Q 1931 388 2195 563 
Q 2459 738 2459 1019 
Q 2459 1294 2225 1461 
Q 1991 1628 1563 1628 
L 1100 1628 
L 1100 2103 
L 1584 2103 
Q 1947 2103 2158 2242 
Q 2369 2381 2369 2600 
Q 2369 2800 2151 2944 
Q 1934 3088 1563 3088 
Q 1341 3088 1089 3047 
Q 838 3006 534 2916 
L 534 3438 
Q 841 3513 1106 3550 
Q 1372 3588 1609 3588 
Q 2222 3588 2576 3342 
Q 2931 3097 2931 2656 
Q 2931 2366 2743 2164 
Q 2556 1963 2206 1888 
z
" transform="scale(0.015625)"/>
      <path id="DejaVuSans-43f" d="M 3603 3500 
L 3603 0 
L 3025 0 
L 3025 3041 
L 1159 3041 
L 1159 0 
L 581 0 
L 581 3500 
L 3603 3500 
z
" transform="scale(0.015625)"/>
     </defs>
     <use xlink:href="#DejaVuSans-421"/>
     <use xlink:href="#DejaVuSans-440" transform="translate(69.824219 0)"/>
     <use xlink:href="#DejaVuSans-430" transform="translate(133.300781 0)"/>
     <use xlink:href="#DejaVuSans-432" transform="translate(194.580078 0)"/>
     <use xlink:href="#DejaVuSans-43d" transform="translate(253.515625 0)"/>
     <use xlink:href="#DejaVuSans-435" transform="translate(318.896484 0)"/>
     <use xlink:href="#DejaVuSans-43d" transform="translate(380.419922 0)"/>
     <use xlink:href="#DejaVuSans-438" transform="translate(445.800781 0)"/>
     <use xlink:href="#DejaVuSans-435" transform="translate(510.791016 0)"/>
     <use xlink:href="#DejaVuSans-20" transform="translate(572.314453 0)"/>
     <use xlink:href="#DejaVuSans-441" transform="translate(604.101562 0)"/>
     <use xlink:href="#DejaVuSans-442" transform="translate(659.082031 0)"/>
     <use xlink:href="#DejaVuSans-43e" transform="translate(717.333984 0)"/>
     <use xlink:href="#DejaVuSans-438" transform="translate(778.515625 0)"/>
     <use xlink:href="#DejaVuSans-43c" transform="translate(843.505859 0)"/>
     <use xlink:href="#DejaVuSans-43e" transform="translate(918.945312 0)"/>
     <use xlink:href="#DejaVuSans-441" transform="translate(980.126953 0)"/>
     <use xlink:href="#DejaVuSans-442" transform="translate(1035.107422 0)"/>
     <use xlink:href="#DejaVuSans-435" transform="translate(1093.359375 0)"/>
     <use xlink:href="#DejaVuSans-439" transform="translate(1154.882812 0)"/>
     <use xlink:href="#DejaVuSans-20" transform="translate(1219.873047 0)"/>
     <use xlink:href="#DejaVuSans-437" transform="translate(1251.660156 0)"/>
     <use xlink:href="#DejaVuSans-430" transform="translate(1304.833984 0)"/>
     <use xlink:href="#DejaVuSans-43f" transform="translate(1366.113281 0)"/>
     <use xlink:href="#DejaVuSans-440" transform="translate(1431.494141 0)"/>
     <use xlink:href="#DejaVuSans-43e" transform="translate(1494.970703 0)"/>
     <use xlink:href="#DejaVuSans-441" transform="translate(1556.152344 0)"/>
     <use xlink:href="#DejaVuSans-43e" transform="translate(1611.132812 0)"/>
     <use xlink:href="#DejaVuSans-432" transform="translate(1672.314453 0)"/>
    </g>
   </g>
   <g id="legend_1">
    <g id="patch_73">
     <path d="M 1873.984486 137.292487 
L 1938.928236 137.292487 
Q 1940.928236 137.292487 1940.928236 135.292487 
L 1940.928236 106.936237 
Q 1940.928236 104.936237 1938.928236 104.936237 
L 1873.984486 104.936237 
Q 1871.984486 104.936237 1871.984486 106.936237 
L 1871.984486 135.292487 
Q 1871.984486 137.292487 1873.984486 137.292487 
z
" style="fill: #ffffff; opacity: 0.8; stroke: #cccccc; stroke-linejoin: miter"/>
    </g>
    <g id="patch_74">
     <path d="M 1875.984486 116.534674 
L 1895.984486 116.534674 
L 1895.984486 109.534674 
L 1875.984486 109.534674 
z
" style="fill: #1f77b4"/>
    </g>
    <g id="text_15">
     <!-- DPsize -->
     <g transform="translate(1903.984486 116.534674) scale(0.1 -0.1)">
      <defs>
       <path id="DejaVuSans-44" d="M 1259 4147 
L 1259 519 
L 2022 519 
Q 2988 519 3436 956 
Q 3884 1394 3884 2338 
Q 3884 3275 3436 3711 
Q 2988 4147 2022 4147 
L 1259 4147 
z
M 628 4666 
L 1925 4666 
Q 3281 4666 3915 4102 
Q 4550 3538 4550 2338 
Q 4550 1131 3912 565 
Q 3275 0 1925 0 
L 628 0 
L 628 4666 
z
" transform="scale(0.015625)"/>
       <path id="DejaVuSans-50" d="M 1259 4147 
L 1259 2394 
L 2053 2394 
Q 2494 2394 2734 2622 
Q 2975 2850 2975 3272 
Q 2975 3691 2734 3919 
Q 2494 4147 2053 4147 
L 1259 4147 
z
M 628 4666 
L 2053 4666 
Q 2838 4666 3239 4311 
Q 3641 3956 3641 3272 
Q 3641 2581 3239 2228 
Q 2838 1875 2053 1875 
L 1259 1875 
L 1259 0 
L 628 0 
L 628 4666 
z
" transform="scale(0.015625)"/>
       <path id="DejaVuSans-73" d="M 2834 3397 
L 2834 2853 
Q 2591 2978 2328 3040 
Q 2066 3103 1784 3103 
Q 1356 3103 1142 2972 
Q 928 2841 928 2578 
Q 928 2378 1081 2264 
Q 1234 2150 1697 2047 
L 1894 2003 
Q 2506 1872 2764 1633 
Q 3022 1394 3022 966 
Q 3022 478 2636 193 
Q 2250 -91 1575 -91 
Q 1294 -91 989 -36 
Q 684 19 347 128 
L 347 722 
Q 666 556 975 473 
Q 1284 391 1588 391 
Q 1994 391 2212 530 
Q 2431 669 2431 922 
Q 2431 1156 2273 1281 
Q 2116 1406 1581 1522 
L 1381 1569 
Q 847 1681 609 1914 
Q 372 2147 372 2553 
Q 372 3047 722 3315 
Q 1072 3584 1716 3584 
Q 2034 3584 2315 3537 
Q 2597 3491 2834 3397 
z
" transform="scale(0.015625)"/>
       <path id="DejaVuSans-69" d="M 603 3500 
L 1178 3500 
L 1178 0 
L 603 0 
L 603 3500 
z
M 603 4863 
L 1178 4863 
L 1178 4134 
L 603 4134 
L 603 4863 
z
" transform="scale(0.015625)"/>
       <path id="DejaVuSans-7a" d="M 353 3500 
L 3084 3500 
L 3084 2975 
L 922 459 
L 3084 459 
L 3084 0 
L 275 0 
L 275 525 
L 2438 3041 
L 353 3041 
L 353 3500 
z
" transform="scale(0.015625)"/>
       <path id="DejaVuSans-65" d="M 3597 1894 
L 3597 1613 
L 953 1613 
Q 991 1019 1311 708 
Q 1631 397 2203 397 
Q 2534 397 2845 478 
Q 3156 559 3463 722 
L 3463 178 
Q 3153 47 2828 -22 
Q 2503 -91 2169 -91 
Q 1331 -91 842 396 
Q 353 884 353 1716 
Q 353 2575 817 3079 
Q 1281 3584 2069 3584 
Q 2775 3584 3186 3129 
Q 3597 2675 3597 1894 
z
M 3022 2063 
Q 3016 2534 2758 2815 
Q 2500 3097 2075 3097 
Q 1594 3097 1305 2825 
Q 1016 2553 972 2059 
L 3022 2063 
z
" transform="scale(0.015625)"/>
      </defs>
      <use xlink:href="#DejaVuSans-44"/>
      <use xlink:href="#DejaVuSans-50" transform="translate(77.001953 0)"/>
      <use xlink:href="#DejaVuSans-73" transform="translate(135.554688 0)"/>
      <use xlink:href="#DejaVuSans-69" transform="translate(187.654297 0)"/>
      <use xlink:href="#DejaVuSans-7a" transform="translate(215.4375 0)"/>
      <use xlink:href="#DejaVuSans-65" transform="translate(267.927734 0)"/>
     </g>
    </g>
    <g id="patch_75">
     <path d="M 1875.984486 131.212799 
L 1895.984486 131.212799 
L 1895.984486 124.212799 
L 1875.984486 124.212799 
z
" style="fill: #ff7f0e"/>
    </g>
    <g id="text_16">
     <!-- DPhyp -->
     <g transform="translate(1903.984486 131.212799) scale(0.1 -0.1)">
      <defs>
       <path id="DejaVuSans-68" d="M 3513 2113 
L 3513 0 
L 2938 0 
L 2938 2094 
Q 2938 2591 2744 2837 
Q 2550 3084 2163 3084 
Q 1697 3084 1428 2787 
Q 1159 2491 1159 1978 
L 1159 0 
L 581 0 
L 581 4863 
L 1159 4863 
L 1159 2956 
Q 1366 3272 1645 3428 
Q 1925 3584 2291 3584 
Q 2894 3584 3203 3211 
Q 3513 2838 3513 2113 
z
" transform="scale(0.015625)"/>
       <path id="DejaVuSans-79" d="M 2059 -325 
Q 1816 -950 1584 -1140 
Q 1353 -1331 966 -1331 
L 506 -1331 
L 506 -850 
L 844 -850 
Q 1081 -850 1212 -737 
Q 1344 -625 1503 -206 
L 1606 56 
L 191 3500 
L 800 3500 
L 1894 763 
L 2988 3500 
L 3597 3500 
L 2059 -325 
z
" transform="scale(0.015625)"/>
       <path id="DejaVuSans-70" d="M 1159 525 
L 1159 -1331 
L 581 -1331 
L 581 3500 
L 1159 3500 
L 1159 2969 
Q 1341 3281 1617 3432 
Q 1894 3584 2278 3584 
Q 2916 3584 3314 3078 
Q 3713 2572 3713 1747 
Q 3713 922 3314 415 
Q 2916 -91 2278 -91 
Q 1894 -91 1617 61 
Q 1341 213 1159 525 
z
M 3116 1747 
Q 3116 2381 2855 2742 
Q 2594 3103 2138 3103 
Q 1681 3103 1420 2742 
Q 1159 2381 1159 1747 
Q 1159 1113 1420 752 
Q 1681 391 2138 391 
Q 2594 391 2855 752 
Q 3116 1113 3116 1747 
z
" transform="scale(0.015625)"/>
      </defs>
      <use xlink:href="#DejaVuSans-44"/>
      <use xlink:href="#DejaVuSans-50" transform="translate(77.001953 0)"/>
      <use xlink:href="#DejaVuSans-68" transform="translate(137.304688 0)"/>
      <use xlink:href="#DejaVuSans-79" transform="translate(200.683594 0)"/>
      <use xlink:href="#DejaVuSans-70" transform="translate(259.863281 0)"/>
     </g>
    </g>
   </g>
  </g>
 </g>
 <defs>
  <clipPath id="pba9334d21e">
   <rect x="270.267811" y="99.936237" width="1675.660425" height="641.25752"/>
  </clipPath>
 </defs>
</svg>
